<svg xmlns="http://www.w3.org/2000/svg" id="e87ddc62-7528-42a5-8b37-f74ed0351019" data-name="Layer 1" width="1131" height="812.20611" viewBox="0 0 1131 812.20611"><title>software engineer</title><rect x="689.32824" y="51.26718" width="80.80153" height="30.0916" fill="#ffc107" opacity="0.3"/><rect x="823.62595" width="80.80153" height="30.0916" fill="#ffc107" opacity="0.3"/><rect x="829.19847" y="93.06107" width="80.80153" height="30.0916" fill="#ffc107" opacity="0.3"/><rect x="570.63359" y="127.61069" width="80.80153" height="30.0916" fill="#ffc107" opacity="0.3"/><rect x="545" y="251.32061" width="80.80153" height="30.0916" fill="#ffc107" opacity="0.3"/><rect x="667.03817" y="248.53435" width="80.80153" height="30.0916" fill="#ffc107" opacity="0.3"/><polyline points="823.626 14.856 770.13 65.616 829.198 108.107" fill="none" stroke="#3f3d56" stroke-miterlimit="10"/><line x1="689.32824" y1="65.61641" x2="611.03435" y2="127.61069" fill="none" stroke="#3f3d56" stroke-miterlimit="10"/><polyline points="585.401 251.297 611.034 157.702 707.439 248.534" fill="none" stroke="#3f3d56" stroke-miterlimit="10"/><rect x="144.32824" y="82.26718" width="80.80153" height="30.0916" fill="#ffc107" opacity="0.3"/><rect x="278.62595" y="31" width="80.80153" height="30.0916" fill="#ffc107" opacity="0.3"/><rect x="284.19847" y="124.06107" width="80.80153" height="30.0916" fill="#ffc107" opacity="0.3"/><rect x="25.63359" y="158.61069" width="80.80153" height="30.0916" fill="#ffc107" opacity="0.3"/><rect y="282.32061" width="80.80153" height="30.0916" fill="#ffc107" opacity="0.3"/><rect x="122.03817" y="279.53435" width="80.80153" height="30.0916" fill="#ffc107" opacity="0.3"/><polyline points="278.626 45.856 225.13 96.616 284.198 139.107" fill="none" stroke="#3f3d56" stroke-miterlimit="10"/><line x1="144.32824" y1="96.61641" x2="66.03435" y2="158.61069" fill="none" stroke="#3f3d56" stroke-miterlimit="10"/><polyline points="40.401 282.297 66.034 188.702 162.439 279.534" fill="none" stroke="#3f3d56" stroke-miterlimit="10"/><line x1="365" y1="139.10687" x2="456.63359" y2="139.10687" fill="none" stroke="#3f3d56" stroke-miterlimit="10"/><rect x="415.5" y="123.70611" width="95" height="30" fill="#ffc107"/><line x1="510.62322" y1="138.70611" x2="570.63359" y2="138.70611" fill="none" stroke="#3f3d56" stroke-miterlimit="10"/><line x1="415.04486" y1="138.70611" x2="359.42748" y2="45.8564" fill="none" stroke="#3f3d56" stroke-miterlimit="10"/><ellipse cx="691" cy="714.20611" rx="440" ry="98" fill="#f2f2f2"/></svg>